{"title":"Wayward.Pines.S01E01.1080p.WEB-DL.DD5.1.H.264-KiNGS[rarbg]","uid":11954049,"size":1886943417,"categoryP":"video","categoryS":"hd___tv_shows","magnet":"?xt=urn:btih:f85eddad0b9162504966bcda5816a6216fc4c69a&amp;dn=Wayward.Pines.S01E01.1080p.WEB-DL.DD5.1.H.264-KiNGS%5Brarbg%5D&amp;tr=udp%3A%2F%2Ftracker.openbittorrent.com%3A80&amp;tr=udp%3A%2F%2Fopen.demonii.com%3A1337&amp;tr=udp%3A%2F%2Ftracker.coppersurfer.tk%3A6969&amp;tr=udp%3A%2F%2Fexodus.desync.com%3A6969","seeders":0,"leechers":1,"uploader":"vickey1992","files":3,"time":1432308993,"description":"Video\nID                                       : 2\nFormat                                   : AVC\nFormat/Info                              : Advanced Video Codec\nFormat profile                           : High@L4\nFormat settings, CABAC                   : Yes\nFormat settings, ReFrames                : 4 frames\nCodec ID                                 : V_MPEG4/ISO/AVC\nDuration                                 : 45mn 13s\nBit rate                                 : 5 069 Kbps\nWidth                                    : 1 920 pixels\nHeight                                   : 1 080 pixels\nDisplay aspect ratio                     : 16:9\nFrame rate mode                          : Constant\nFrame rate                               : 23.976 fps\nColor space                              : YUV\nChroma subsampling                       : 4:2:0\nBit depth                                : 8 bits\nScan type                                : Progressive\nBits/(Pixel*Frame)                       : 0.102\nStream size                              : 1.60 GiB (91%)\nLanguage                                 : English\nDefault                                  : Yes\nForced                                   : No\nColor range                              : Limited\nColor primaries                          : BT.709\nTransfer characteristics                 : BT.709\nMatrix coefficients                      : BT.709\n\nAudio\nID                                       : 3\nFormat                                   : AC-3\nFormat/Info                              : Audio Coding 3\nMode extension                           : CM (complete main)\nFormat settings, Endianness              : Big\nCodec ID                                 : A_AC3\nDuration                                 : 45mn 13s\nBit rate mode                            : Constant\nBit rate                                 : 384 Kbps\nChannel(s)                               : 6 channels\nChannel positions                        : Front: L C R, Side: L R, LFE\nSampling rate                            : 48.0 KHz\nBit depth                                : 16 bits\nCompression mode                         : Lossy\nStream size                              : 124 MiB (7%)\nLanguage                                 : English\nDefault                                  : Yes\nForced                                   : No\n\nText\nID                                       : 1\nFormat                                   : UTF-8\nCodec ID                                 : S_TEXT/UTF8\nCodec ID/Info                            : UTF-8 Plain Text\nDefault                                  : Yes\nForced                                   : No","torrent":{"xt":"urn:btih:f85eddad0b9162504966bcda5816a6216fc4c69a","amp;dn":"Wayward.Pines.S01E01.1080p.WEB-DL.DD5.1.H.264-KiNGS%5Brarbg%5D","amp;tr":["udp%3A%2F%2Ftracker.openbittorrent.com%3A80","udp%3A%2F%2Fopen.demonii.com%3A1337","udp%3A%2F%2Ftracker.coppersurfer.tk%3A6969","udp%3A%2F%2Fexodus.desync.com%3A6969"],"infoHash":"f85eddad0b9162504966bcda5816a6216fc4c69a","infoHashBuffer":{"type":"Buffer","data":[248,94,221,173,11,145,98,80,73,102,188,218,88,22,166,33,111,196,198,154]},"announce":[],"urlList":[]}}